<svg xmlns="http://www.w3.org/2000/svg" viewBox="0 0 512 512" width="512" height="512"><defs><path id="s0" d="M1.000 -0.000L1.000 0.025L1.000 0.050L0.999 0.075L0.999 0.100L0.998 0.125L0.996 0.150L0.994 0.175L0.990 0.199L0.986 0.224L0.981 0.248L0.974 0.272L0.966 0.296L0.956 0.319L0.945 0.341L0.932 0.363L0.918 0.383L0.902 0.403L0.885 0.421L0.867 0.438L0.848 0.454L0.828 0.469L0.807 0.482L0.785 0.495L0.763 0.506L0.740 0.516L0.717 0.526L0.693 0.534L0.670 0.542L0.646 0.549L0.621 0.555L0.597 0.561L0.573 0.566L0.548 0.571L0.523 0.575L0.499 0.579L0.474 0.582L0.449 0.585L0.424 0.588L0.399 0.590L0.375 0.592L0.350 0.593L0.325 0.595L0.300 0.596L0.275 0.597L0.250 0.598L0.225 0.598L0.200 0.599L0.175 0.599L0.150 0.599L0.125 0.600L0.100 0.600L0.075 0.600L0.050 0.600L0.025 0.600L-0.000 0.600L-0.025 0.600L-0.050 0.600L-0.075 0.600L-0.100 0.600L-0.125 0.600L-0.150 0.599L-0.175 0.599L-0.200 0.599L-0.225 0.598L-0.250 0.598L-0.275 0.597L-0.300 0.596L-0.325 0.595L-0.350 0.593L-0.375 0.592L-0.399 0.590L-0.424 0.588L-0.449 0.585L-0.474 0.582L-0.499 0.579L-0.523 0.575L-0.548 0.571L-0.573 0.566L-0.597 0.561L-0.621 0.555L-0.646 0.549L-0.670 0.542L-0.693 0.534L-0.717 0.526L-0.740 0.516L-0.763 0.506L-0.785 0.495L-0.807 0.482L-0.828 0.469L-0.848 0.454L-0.867 0.438L-0.885 0.421L-0.902 0.403L-0.918 0.383L-0.932 0.363L-0.945 0.341L-0.956 0.319L-0.966 0.296L-0.974 0.272L-0.981 0.248L-0.986 0.224L-0.990 0.199L-0.994 0.175L-0.996 0.150L-0.998 0.125L-0.999 0.100L-0.999 0.075L-1.000 0.050L-1.000 0.025L-1.000 -0.000L-1.000 -0.025L-1.000 -0.050L-0.999 -0.075L-0.999 -0.100L-0.998 -0.125L-0.996 -0.150L-0.994 -0.175L-0.990 -0.199L-0.986 -0.224L-0.981 -0.248L-0.974 -0.272L-0.966 -0.296L-0.956 -0.319L-0.945 -0.341L-0.932 -0.363L-0.918 -0.383L-0.902 -0.403L-0.885 -0.421L-0.867 -0.438L-0.848 -0.454L-0.828 -0.469L-0.807 -0.482L-0.785 -0.495L-0.763 -0.506L-0.740 -0.516L-0.717 -0.526L-0.693 -0.534L-0.670 -0.542L-0.646 -0.549L-0.621 -0.555L-0.597 -0.561L-0.573 -0.566L-0.548 -0.571L-0.523 -0.575L-0.499 -0.579L-0.474 -0.582L-0.449 -0.585L-0.424 -0.588L-0.399 -0.590L-0.375 -0.592L-0.350 -0.593L-0.325 -0.595L-0.300 -0.596L-0.275 -0.597L-0.250 -0.598L-0.225 -0.598L-0.200 -0.599L-0.175 -0.599L-0.150 -0.599L-0.125 -0.600L-0.100 -0.600L-0.075 -0.600L-0.050 -0.600L-0.025 -0.600L-0.000 -0.600L0.025 -0.600L0.050 -0.600L0.075 -0.600L0.100 -0.600L0.125 -0.600L0.150 -0.599L0.175 -0.599L0.200 -0.599L0.225 -0.598L0.250 -0.598L0.275 -0.597L0.300 -0.596L0.325 -0.595L0.350 -0.593L0.375 -0.592L0.399 -0.590L0.424 -0.588L0.449 -0.585L0.474 -0.582L0.499 -0.579L0.523 -0.575L0.548 -0.571L0.573 -0.566L0.597 -0.561L0.621 -0.555L0.646 -0.549L0.670 -0.542L0.693 -0.534L0.717 -0.526L0.740 -0.516L0.763 -0.506L0.785 -0.495L0.807 -0.482L0.828 -0.469L0.848 -0.454L0.867 -0.438L0.885 -0.421L0.902 -0.403L0.918 -0.383L0.932 -0.363L0.945 -0.341L0.956 -0.319L0.966 -0.296L0.974 -0.272L0.981 -0.248L0.986 -0.224L0.990 -0.199L0.994 -0.175L0.996 -0.150L0.998 -0.125L0.999 -0.100L0.999 -0.075L1.000 -0.050L1.000 -0.025Z"/></defs><use href="#s0" transform="matrix(151.266 -26.672 26.672 151.266 256.0 297.0)" fill="#5CCB77"/><rect x="-0.0440" y="-0.1210" width="0.0880" height="0.2420" rx="0.0440" transform="matrix(175.469 -30.940 30.940 175.469 231.0 301.4)" fill="#FFFFFF"/><rect x="-0.0440" y="-0.1210" width="0.0880" height="0.2420" rx="0.0440" transform="matrix(175.469 -30.940 30.940 175.469 281.0 292.6)" fill="#FFFFFF"/></svg>