<svg xmlns="http://www.w3.org/2000/svg" viewBox="0 0 512 512" width="512" height="512"><defs><path id="s0" d="M-0.157 -0.762L-0.142 -0.788L-0.127 -0.814L-0.111 -0.840L-0.096 -0.865L-0.080 -0.891L-0.063 -0.915L-0.043 -0.937L-0.017 -0.952L0.012 -0.954L0.039 -0.941L0.060 -0.920L0.077 -0.895L0.093 -0.870L0.109 -0.844L0.124 -0.818L0.139 -0.793L0.154 -0.767L0.169 -0.741L0.184 -0.715L0.199 -0.689L0.214 -0.663L0.229 -0.637L0.244 -0.611L0.259 -0.586L0.275 -0.560L0.291 -0.535L0.308 -0.510L0.327 -0.487L0.348 -0.466L0.371 -0.446L0.395 -0.428L0.420 -0.413L0.447 -0.399L0.474 -0.387L0.503 -0.378L0.532 -0.371L0.561 -0.364L0.590 -0.357L0.619 -0.351L0.649 -0.345L0.678 -0.338L0.707 -0.332L0.736 -0.326L0.766 -0.320L0.795 -0.313L0.824 -0.307L0.853 -0.301L0.883 -0.294L0.912 -0.287L0.940 -0.278L0.967 -0.266L0.989 -0.246L1.000 -0.218L0.996 -0.189L0.982 -0.162L0.965 -0.138L0.945 -0.115L0.926 -0.093L0.906 -0.070L0.886 -0.048L0.866 -0.026L0.846 -0.003L0.826 0.019L0.806 0.041L0.786 0.063L0.766 0.086L0.746 0.108L0.726 0.131L0.707 0.153L0.688 0.176L0.670 0.200L0.653 0.225L0.640 0.252L0.628 0.279L0.619 0.308L0.611 0.337L0.607 0.366L0.604 0.396L0.604 0.426L0.606 0.456L0.609 0.486L0.611 0.516L0.614 0.545L0.618 0.575L0.621 0.605L0.624 0.635L0.627 0.664L0.630 0.694L0.633 0.724L0.636 0.754L0.639 0.784L0.642 0.813L0.644 0.843L0.645 0.873L0.641 0.903L0.629 0.930L0.606 0.948L0.577 0.954L0.547 0.949L0.519 0.939L0.491 0.928L0.463 0.917L0.436 0.905L0.409 0.893L0.381 0.881L0.354 0.868L0.327 0.856L0.299 0.844L0.272 0.832L0.245 0.820L0.217 0.808L0.190 0.796L0.162 0.784L0.134 0.773L0.106 0.763L0.077 0.756L0.047 0.751L0.018 0.748L-0.012 0.748L-0.042 0.750L-0.072 0.755L-0.101 0.762L-0.129 0.771L-0.157 0.782L-0.185 0.794L-0.212 0.806L-0.239 0.818L-0.267 0.830L-0.294 0.842L-0.322 0.854L-0.349 0.866L-0.376 0.878L-0.404 0.891L-0.431 0.903L-0.458 0.915L-0.486 0.926L-0.514 0.938L-0.542 0.948L-0.571 0.953L-0.601 0.950L-0.625 0.934L-0.639 0.908L-0.644 0.878L-0.644 0.849L-0.642 0.819L-0.639 0.789L-0.636 0.759L-0.633 0.729L-0.630 0.700L-0.627 0.670L-0.624 0.640L-0.621 0.610L-0.618 0.580L-0.615 0.551L-0.612 0.521L-0.609 0.491L-0.606 0.461L-0.605 0.431L-0.604 0.401L-0.606 0.372L-0.610 0.342L-0.617 0.313L-0.626 0.284L-0.637 0.257L-0.651 0.230L-0.666 0.204L-0.684 0.180L-0.703 0.157L-0.723 0.135L-0.742 0.112L-0.762 0.090L-0.782 0.067L-0.802 0.045L-0.822 0.023L-0.842 0.001L-0.862 -0.022L-0.882 -0.044L-0.902 -0.066L-0.922 -0.089L-0.942 -0.111L-0.961 -0.134L-0.979 -0.158L-0.994 -0.184L-1.000 -0.213L-0.992 -0.241L-0.972 -0.263L-0.945 -0.276L-0.917 -0.285L-0.888 -0.293L-0.858 -0.299L-0.829 -0.306L-0.800 -0.312L-0.771 -0.319L-0.741 -0.325L-0.712 -0.331L-0.683 -0.337L-0.654 -0.344L-0.624 -0.350L-0.595 -0.356L-0.566 -0.363L-0.537 -0.369L-0.508 -0.377L-0.479 -0.386L-0.451 -0.396L-0.425 -0.410L-0.399 -0.425L-0.375 -0.443L-0.352 -0.462L-0.330 -0.483L-0.311 -0.506L-0.294 -0.530L-0.277 -0.555L-0.262 -0.581L-0.247 -0.607L-0.232 -0.633L-0.217 -0.658L-0.202 -0.684L-0.187 -0.710L-0.172 -0.736Z"/><clipPath id="k1"><ellipse cx="0.0000" cy="0.0000" rx="0.1400" ry="0.1750" transform="matrix(169.267 0.000 0.000 169.267 222.1 309.2)"/></clipPath><clipPath id="k2"><ellipse cx="0.0000" cy="0.0000" rx="0.1400" ry="0.1750" transform="matrix(169.267 0.000 0.000 169.267 289.9 309.2)"/></clipPath></defs><use href="#s0" transform="matrix(153.600 0.000 0.000 153.600 256.0 297.0)" fill="#FFC20E"/><ellipse cx="0.0000" cy="0.0000" rx="0.1400" ry="0.1750" transform="matrix(169.267 0.000 0.000 169.267 222.1 309.2)" fill="#FFFFFF"/><g clip-path="url(#k1)"><ellipse cx="0.0120" cy="0.0250" rx="0.0850" ry="0.0920" transform="matrix(169.267 0.000 0.000 169.267 222.1 309.2)" fill="#141416"/></g><ellipse cx="0.0000" cy="0.0000" rx="0.1400" ry="0.1750" transform="matrix(169.267 0.000 0.000 169.267 289.9 309.2)" fill="#FFFFFF"/><g clip-path="url(#k2)"><ellipse cx="-0.0120" cy="0.0250" rx="0.0850" ry="0.0920" transform="matrix(169.267 0.000 0.000 169.267 289.9 309.2)" fill="#141416"/></g></svg>